<svg width="18" height="18" viewBox="0 0 18 18" fill="none" xmlns="http://www.w3.org/2000/svg">
<path d="M8.43856 5.32321L6.69501 7.06676C6.05264 7.70912 5.40661 8.35149 4.76792 9.00119C4.61742 9.15536 4.50363 9.36091 4.45958 9.5628C4.22833 10.6236 4.00442 11.6844 3.78051 12.7452L3.65571 13.3325C3.59698 13.6189 3.67407 13.9052 3.86861 14.0997C4.01911 14.2502 4.22833 14.3346 4.44857 14.3346C4.51097 14.3346 4.57337 14.3273 4.63577 14.3163L5.28181 14.1805C6.30959 13.9639 7.34104 13.7437 8.36882 13.5308C8.60741 13.4794 8.8093 13.3729 8.98182 13.2004C11.8669 10.3116 14.7521 7.42648 17.6372 4.54503C17.8501 4.33213 17.9676 4.07886 17.9969 3.76685C18.0006 3.71546 17.9969 3.66408 17.9859 3.61636C17.9676 3.54294 17.9529 3.46586 17.9345 3.39245C17.8941 3.20525 17.8501 2.99235 17.762 2.78679C17.2224 1.55346 16.3268 0.672502 15.1008 0.176965C14.8548 0.077858 14.5942 0.0448222 14.3667 0.0154571L14.3043 0.00811581C13.9739 -0.0322613 13.6729 0.077858 13.4123 0.342144C11.7605 2.00127 10.0977 3.66408 8.43856 5.32321ZM14.1831 0.892741C14.1905 0.892741 14.1941 0.892741 14.2015 0.892741L14.2639 0.900082C14.4547 0.922106 14.6309 0.94413 14.7704 1.00286C15.7688 1.40663 16.503 2.12608 16.9471 3.13917C16.9985 3.25663 17.0315 3.40713 17.0646 3.56497C17.0756 3.6237 17.0903 3.68243 17.1013 3.74116C17.0866 3.80723 17.0609 3.85128 17.0095 3.899C14.1207 6.78045 11.2356 9.66925 8.35047 12.5544C8.30275 12.6021 8.2587 12.6241 8.19263 12.6388C7.16118 12.8554 6.1334 13.0719 5.10195 13.2885L4.55869 13.4023L4.66147 12.9214C4.88538 11.8643 5.10929 10.8035 5.33687 9.74633C5.34421 9.71329 5.37357 9.6619 5.40661 9.6252C6.0453 8.97917 6.68399 8.3368 7.32636 7.69811L9.06991 5.95456C10.7327 4.29176 12.3955 2.62895 14.0546 0.962483C14.1244 0.903753 14.1574 0.892741 14.1831 0.892741Z" fill="black"/>
<path d="M1.42788 4.00179H7.83682C8.08643 4.00179 8.28831 3.79991 8.28831 3.55031C8.28831 3.3007 8.08643 3.09882 7.83682 3.09882H1.42788C0.638692 3.09882 0 3.74118 0 4.5267V16.5444C0 17.3336 0.642363 17.9723 1.42788 17.9723H13.4419C14.2311 17.9723 14.8698 17.3299 14.8698 16.5444V10.3961C14.8698 10.1465 14.6679 9.94456 14.4183 9.94456C14.1687 9.94456 13.9668 10.1465 13.9668 10.3961V16.5444C13.9668 16.8344 13.7282 17.073 13.4382 17.073H1.42788C1.1379 17.073 0.899308 16.8344 0.899308 16.5444V4.53037C0.899308 4.24039 1.1379 4.00179 1.42788 4.00179Z" fill="black"/>
</svg>
