<svg width="14" height="14" viewBox="0 0 12 12" fill="none" xmlns="http://www.w3.org/2000/svg">
<path d="M11.2364 5.81583L9.97332 4.55272C9.82886 4.40818 9.61143 4.36503 9.42271 4.44318C9.23391 4.52139 9.1108 4.7056 9.1108 4.90996V5.66783H6.33199V2.88898H7.08986C7.29421 2.88898 7.47843 2.76587 7.55664 2.57707C7.63482 2.38828 7.5916 2.17096 7.4471 2.02646L6.18399 0.763343C5.98671 0.566028 5.66679 0.566028 5.46947 0.763343L4.20636 2.02646C4.06186 2.17096 4.01865 2.38828 4.09683 2.57707C4.17504 2.76587 4.35928 2.88898 4.5636 2.88898H5.3215V5.66783H2.54266V4.90996C2.54266 4.7056 2.41955 4.52136 2.23076 4.44318C2.04193 4.365 1.82461 4.40822 1.68014 4.55272L0.417029 5.81583C0.219714 6.01314 0.219714 6.33303 0.417029 6.53035L1.68014 7.79346C1.77681 7.89013 1.90598 7.94146 2.03752 7.94146C2.10259 7.94146 2.16824 7.92887 2.23076 7.903C2.41955 7.82479 2.54266 7.64054 2.54266 7.43622V6.67832H5.3215V9.45716H4.56364C4.35928 9.45716 4.17504 9.58028 4.09686 9.76907C4.01868 9.95786 4.0619 10.1752 4.2064 10.3197L5.46951 11.5828C5.56813 11.6815 5.69744 11.7308 5.82675 11.7308C5.95606 11.7308 6.08537 11.6815 6.18399 11.5828L7.4471 10.3197C7.5916 10.1752 7.63482 9.95783 7.55664 9.76904C7.47843 9.58024 7.29421 9.45713 7.08986 9.45713H6.33199V6.67832H9.11084V7.43618C9.11084 7.64054 9.23391 7.82479 9.42274 7.90296C9.48522 7.92887 9.55091 7.94143 9.61598 7.94143C9.74745 7.94143 9.87669 7.8901 9.97332 7.79343L11.2364 6.53031C11.4338 6.33303 11.4338 6.01314 11.2364 5.81583Z" fill="white"/>
</svg>
